<?xml version="1.0" standalone="no"?>
<!DOCTYPE svg PUBLIC "-//W3C//DTD SVG 20010904//EN"
 "http://www.w3.org/TR/2001/REC-SVG-20010904/DTD/svg10.dtd">
<svg version="1.0" xmlns="http://www.w3.org/2000/svg"
 width="512.000000pt" height="512.000000pt" viewBox="0 0 512.000000 512.000000"
 preserveAspectRatio="xMidYMid meet">
<metadata>
Created by potrace 1.14, written by Peter Selinger 2001-2017
</metadata>
<g transform="translate(0.000000,512.000000) scale(0.100000,-0.100000)"
fill="#000000" stroke="none">
<path d="M2585 4384 c-74 -26 -112 -72 -221 -262 -32 -57 -66 -116 -75 -130
-17 -29 -440 -756 -469 -807 -10 -16 -61 -105 -114 -196 -67 -115 -98 -179
-102 -210 -3 -24 -7 -46 -7 -49 -1 -3 2 -25 6 -50 26 -152 184 -246 339 -201
89 25 119 63 289 357 66 113 156 269 173 297 10 18 77 133 149 255 110 189
132 221 140 205 6 -10 80 -134 164 -277 84 -142 153 -262 153 -267 0 -5 5 -9
10 -9 6 0 10 -4 10 -9 0 -5 44 -83 98 -174 55 -90 102 -170 106 -178 4 -8 12
-23 19 -34 38 -62 133 -223 142 -240 6 -11 49 -83 95 -160 132 -223 343 -578
354 -600 6 -11 72 -121 145 -245 74 -124 179 -301 234 -395 112 -190 140 -225
210 -260 64 -31 170 -30 233 3 114 59 173 210 127 323 -9 24 -86 160 -171 303
-85 144 -164 277 -174 296 -24 40 -279 472 -384 648 -41 68 -74 126 -74 129 0
3 -11 21 -25 39 -14 18 -25 35 -25 38 0 3 -17 34 -38 68 -21 35 -50 83 -64
108 -26 45 -184 313 -327 552 -42 70 -83 140 -91 155 -9 15 -61 105 -117 198
-55 94 -111 188 -123 209 -12 22 -37 64 -56 93 -19 29 -34 55 -34 57 0 3 -22
41 -50 86 -27 45 -50 83 -50 85 0 18 -119 190 -145 210 -71 54 -176 69 -260
39z"/>
<path d="M1056 2288 c-136 -17 -230 -124 -229 -260 0 -79 24 -136 81 -191 80
-78 30 -75 1002 -75 831 0 867 1 917 20 105 39 172 141 168 255 -4 108 -62
191 -163 235 -42 19 -76 20 -881 21 -460 1 -863 -1 -895 -5z"/>
<path d="M517 1488 c-51 -11 -86 -30 -128 -71 -50 -49 -72 -101 -75 -178 -5
-109 52 -201 155 -250 l46 -23 1269 0 c1181 -1 1274 0 1327 16 150 47 223 217
153 364 -28 60 -67 97 -134 128 -45 21 -51 21 -1310 22 -696 0 -1282 -3 -1303
-8z"/>
</g>
</svg>
